<svg xmlns="http://www.w3.org/2000/svg" viewBox="0 0 63.74 49"><g id="Layer_2" data-name="Layer 2"><g id="Layer_1-2" data-name="Layer 1"><path d="M59.72,48.5H16.24a3.51,3.51,0,0,1-3-1.72L1,26.15a3.51,3.51,0,0,1,0-3.6L13.21,2.21a3.51,3.51,0,0,1,3-1.71h43.5A3.51,3.51,0,0,1,63.24,4V45A3.51,3.51,0,0,1,59.72,48.5Z" fill="#747474" stroke="#747474" stroke-miterlimit="10"/><path d="M23.24,15.5l3-4,10,10,9-9,4,3-9,9,9,10-4,4-9-10-10,10-4-4,10-10Z" fill="#fff" stroke="#747474" stroke-miterlimit="10"/></g></g></svg>