<svg xmlns="http://www.w3.org/2000/svg" viewBox="0 0 99.5 127.18"><g id="Layer_2" data-name="Layer 2"><g id="Layer_1-2" data-name="Layer 1"><path d="M.5,120.18v-63A10.93,10.93,0,0,1,4,52.68a12.44,12.44,0,0,1,8-2c6.22.28,36.38.13,78,0a8.76,8.76,0,0,1,9,7v60a11.21,11.21,0,0,1-8,9H8a11.5,11.5,0,0,1-7.5-6.5Z" fill="#747474" stroke="#747474" stroke-miterlimit="10"/><path d="M28,50.68v-13a24.27,24.27,0,0,1,5-12,21.65,21.65,0,0,1,12-8,21.3,21.3,0,0,1,9,0,21.37,21.37,0,0,1,17,19v14H88v-14a37.55,37.55,0,0,0-8-22,38.43,38.43,0,0,0-17-12,40,40,0,0,0-26,0,38,38,0,0,0-25,32v16Z" fill="#747474" stroke="#747474" stroke-miterlimit="10"/><path d="M47,107.68v-13a9.83,9.83,0,0,1-4-4,9.63,9.63,0,0,1,0-9,9.47,9.47,0,0,1,8-5,9.62,9.62,0,0,1,9,6,9.84,9.84,0,0,1,0,7,10.33,10.33,0,0,1-4,5v13a4.53,4.53,0,1,1-9,0Z" fill="#fff" stroke="#747474" stroke-miterlimit="10"/></g></g></svg>