<svg xmlns="http://www.w3.org/2000/svg" viewBox="0 0 412.28 709"><title>watermark</title><g id="Layer_2" data-name="Layer 2"><g id="Layer_1-2" data-name="Layer 1"><path d="M262.22,377.58l1.28,1.92.18.44a59.7,59.7,0,0,1-11.26,3.4c-4.41.87-12.56,2.38-22.08,0-7.71-1.92-7.15-3.31-14.05-5a46.89,46.89,0,0,0-15.22-1l-.07-.86a60.25,60.25,0,0,1,12.71-9.86c5.1-2.94,10.59-6.1,18-6.17,7.88-.07,13.69,3.53,18,6.17a52.2,52.2,0,0,1,12.56,10.85Z" fill="#9dcae9"/><path d="M262.29,377.52a52.2,52.2,0,0,0-12.56-10.85c-4.32-2.64-10.13-6.24-18-6.17-7.42.07-12.91,3.23-18,6.17A60.25,60.25,0,0,0,201,376.53l.07.86a76.35,76.35,0,0,0-19.91,5c-6.24,2.3-6.14,3.08-12,5-7.65,2.45-13.83,2.69-21.07,3-.67,0-1.7.06-3,.07V389a60.38,60.38,0,0,0-5.26-5.52,59.34,59.34,0,0,0-16.83-11A54.33,54.33,0,0,0,104,368a51.39,51.39,0,0,0-20,3.31l-1,0c-.36-.3-.76-.61-1.18-.95-8.41-6.64-12.62-9.65-18.07-9.93-5.82-.3-10.53,2.48-13,4-1.85,1.1-2.67,1.86-9,7.95l-4,3.8-.68-1A119.36,119.36,0,0,0,1,378.5H.5V.5h411V377a34.33,34.33,0,0,0-13.65-5.47l.15-1a71.16,71.16,0,0,0-10.49-3.35,57.27,57.27,0,0,0-18.89-1.68,60.93,60.93,0,0,0-18.88,5A90.36,90.36,0,0,0,334,379l-1.06.34c-1.8-.74-3.22-1.45-4.24-2-6.67-3.33-6.64-5.15-14.05-8.93-5-2.56-9.19-4.7-15.06-5a30.65,30.65,0,0,0-14,3c-6.16,2.68-6.92,5-13.05,8.94a53.93,53.93,0,0,1-8.81,4.54l-.18-.44-1.28-1.92Z" fill="#2777ae"/><path d="M398,370.61l-.15,1c-.3-.06-.6-.1-.9-.14a37.16,37.16,0,0,0-14.06,1c-6.16,1.41-7.35,2.94-13.92,5.43-6.88,2.61-14.67,5.49-24.22,4.5a43,43,0,0,1-11.81-3L334,379a90.36,90.36,0,0,1,15.74-8.39,60.93,60.93,0,0,1,18.88-5,57.27,57.27,0,0,1,18.89,1.68A71.16,71.16,0,0,1,398,370.61Z" fill="#9dcae9"/><path d="M145,389v1.37a133.39,133.39,0,0,1-18-1.07,97.13,97.13,0,0,1-25.09-6,60.76,60.76,0,0,1-10-5c-4.1-2.57-5.3-4.08-8.85-7l1,0A51.39,51.39,0,0,1,104,368a54.33,54.33,0,0,1,18.93,4.42,59.34,59.34,0,0,1,16.83,11A60.38,60.38,0,0,1,145,389Z" fill="#9dcae9"/><path d="M37,375.22l.68,1c-6.13,5.86-7.11,6.74-9.08,8.12-3.49,2.44-7,4.77-12,6a29.26,29.26,0,0,1-16.06-1V378.5H1a119.36,119.36,0,0,1,36-3.28Z" fill="#9dcae9"/><polygon points="411.5 377.04 411.5 708.5 0.5 708.5 0.5 389.3 0.5 378.5 0.5 0.5 411.5 0.5 411.5 377.04" fill="none" stroke="#fff" stroke-miterlimit="10"/><path d="M.5,389.3a29.26,29.26,0,0,0,16.06,1c5.08-1.19,8.55-3.52,12-6,2-1.38,2.95-2.26,9.08-8.12l4-3.8c6.36-6.09,7.18-6.85,9-7.95,2.52-1.49,7.23-4.27,13-4,5.45.28,9.66,3.29,18.07,9.93.42.34.82.65,1.18.95,3.55,2.92,4.75,4.43,8.85,7a60.76,60.76,0,0,0,10,5,97.13,97.13,0,0,0,25.09,6,133.39,133.39,0,0,0,18,1.07c1.33,0,2.36-.05,3-.07,7.24-.29,13.42-.53,21.07-3,5.91-1.89,5.81-2.67,12-5a76.35,76.35,0,0,1,19.91-5,46.89,46.89,0,0,1,15.22,1c6.9,1.65,6.34,3,14.05,5,9.52,2.38,17.67.87,22.08,0a59.7,59.7,0,0,0,11.26-3.4,53.93,53.93,0,0,0,8.81-4.54c6.13-4,6.89-6.26,13.05-8.94a30.65,30.65,0,0,1,14-3c5.87.27,10.05,2.41,15.06,5,7.41,3.78,7.38,5.6,14.05,8.93,1,.51,2.44,1.22,4.24,2a43,43,0,0,0,11.81,3c9.55,1,17.34-1.89,24.22-4.5,6.57-2.49,7.76-4,13.92-5.43a37.16,37.16,0,0,1,14.06-1c.3,0,.6.08.9.14A34.33,34.33,0,0,1,411.5,377l.5.34" fill="none" stroke="#fff" stroke-miterlimit="10"/><path d="M1,378.5a119.36,119.36,0,0,1,36-3.28" fill="none" stroke="#2777ae" stroke-miterlimit="10"/><path d="M84,371.34A51.39,51.39,0,0,1,104,368a54.33,54.33,0,0,1,18.93,4.42,59.34,59.34,0,0,1,16.83,11A60.38,60.38,0,0,1,145,389" fill="none" stroke="#9dcae9" stroke-miterlimit="10"/><path d="M201,376.53a60.25,60.25,0,0,1,12.71-9.86c5.1-2.94,10.59-6.1,18-6.17,7.88-.07,13.69,3.53,18,6.17a52.2,52.2,0,0,1,12.56,10.85c.44.52.84,1,1.21,1.48" fill="none" stroke="#2777ae" stroke-miterlimit="10"/><path d="M334,379a90.36,90.36,0,0,1,15.74-8.39,60.93,60.93,0,0,1,18.88-5,57.27,57.27,0,0,1,18.89,1.68A71.16,71.16,0,0,1,398,370.61" fill="none" stroke="#2777ae" stroke-miterlimit="10"/><line x1="262.22" y1="377.58" x2="263.5" y2="379.5" fill="none" stroke="#2777ae" stroke-miterlimit="10" stroke-width="0.5"/></g></g></svg>