<svg xmlns="http://www.w3.org/2000/svg" viewBox="0 0 1800.3 113.03"><g id="Layer_2" data-name="Layer 2"><g id="Layer_1-2" data-name="Layer 1"><g id="Layer_2-2" data-name="Layer 2"><g id="Layer_1-2-2" data-name="Layer 1-2"><g id="Layer_2-2-2" data-name="Layer 2-2"><g id="Layer_1-2-2-2" data-name="Layer 1-2-2"><path d="M1662.5,31.72l.8,1.1c-2.3.4-5.2.9-8.9,1.4-10.6,1.4-21.5,2.5-32.5,3-13.1.8-26.2,1.1-39.4,1s-26.4-.9-39.4-2c-12.6-.9-25-2.2-37.1-4-2.6-.4-8.1-1.3-15.1-2.6h0a263,263,0,0,1,34.8-9.4c13.9-2.8,29.1-5.8,49.5-5.8,21.7-.1,37.6,3.3,49.5,5.8A211.07,211.07,0,0,1,1662.5,31.72Z" fill="#9dcae9"/><path d="M1120.9,12a341.4,341.4,0,0,1,53.4-5.3c35.3-.7,70.2,3.5,99.5,12,5.3,1.5,10.4,3.2,15.3,5l.8.4c-3.7,1.2-7.4,2.2-11.2,3.1s-7.6,1.5-11.6,2c-3.8.5-7.7.8-11.6,1a253.57,253.57,0,0,1-30.2,0,155.7,155.7,0,0,1-25.5-3c-5.3-1.1-6.5-1.8-13.9-4-8.8-2.7-18.1-5-27.8-7-10.4-2-20.9-4.1-34.8-4h-2.2Z" fill="#9dcae9"/><path d="M880.1,19.42c8.1.8,16,1.9,23.8,3.2V23c-5.6.2-11.2.6-16.6,1.2-14.3,1.4-17,3-32.3,5.4-16,2.6-34,5.5-56.2,4.5a221.78,221.78,0,0,1-37.2-5c-1.7-.4-3.3-.7-4.6-1.1l.4-.3c11.7-2.7,23.8-4.9,36.4-6.7a351.29,351.29,0,0,1,43.4-3.7A342.38,342.38,0,0,1,880.1,19.42Z" fill="#9dcae9"/><path d="M609.1,31.72l.2.2c-8,1.4-16.3,2.4-24.7,3.2a257.4,257.4,0,0,1-51.2,0,170,170,0,0,1-17.4-2.7c-5-1-10.1-1.8-15.2-2.3a263.42,263.42,0,0,0-37.7-.9,183.32,183.32,0,0,1,29.6-9.8c11.9-3,24.8-6.1,42.1-6.2,18.4-.1,32,3.5,42.1,6.2A147.61,147.61,0,0,1,609.1,31.72Z" fill="#9dcae9"/><path d="M322.9,36c4.4,1.8,8.5,3.8,12.4,5.8v.4c-14,.1-27.9-.3-41.8-1.1a472.34,472.34,0,0,1-58.2-6c-8.1-1.4-15.8-3-23.2-5a118.75,118.75,0,0,1-14.6-4.8q-2.4-.9-5.7-2.1a263.6,263.6,0,0,1,47-3.5,266.64,266.64,0,0,1,44.6,4.6A206.34,206.34,0,0,1,322.9,36Z" fill="#9dcae9"/><path d="M87.1,27l.8.3c-15.6,6.4-17.8,7.3-22.6,8.8a140.74,140.74,0,0,1-27.8,6,155.32,155.32,0,0,1-37.3-1V30.72H1.4c16.7-2,33.8-3.2,51-3.8C63.9,26.72,75.5,26.72,87.1,27Z" fill="#9dcae9"/><path d="M951.8,28.32a159,159,0,0,0,21.6,3.4,216.35,216.35,0,0,0,26.7.5c11.2-.3,22.5-1.1,33.6-2.5a285,285,0,0,0,29-5.5c15.6-3.8,15-5.2,27.8-8a155.36,155.36,0,0,1,30.3-4h2.2c13.9-.1,24.4,2,34.8,4,9.7,2,19,4.3,27.8,7,7.4,2.2,8.7,2.9,13.9,4a155.7,155.7,0,0,0,25.5,3,253.57,253.57,0,0,0,30.2,0c3.9-.2,7.8-.5,11.6-1,4-.5,7.9-1.2,11.6-2a88.61,88.61,0,0,0,11.2-3.1l2.7-.9c1.9-.7,1.8-.7,9.3-4l11.6-5c6.4-2.8,7.9-3.5,11.6-5a115.15,115.15,0,0,1,13.9-5,111,111,0,0,1,13.9-3,91.27,91.27,0,0,1,9.3-1,107.45,107.45,0,0,1,13.9,0,93.1,93.1,0,0,1,13.9,2c2.4.6,4.7,1.3,7,2,3.1.9,5.4,1.8,6.8,2.2,2.3.8,4.1,1.5,4.8,1.8,7.3,2.9,15,5.6,23.2,8,4.6,1.4,8.8,2.3,11.6,3s4.1.9,13.9,3l4.6,1,4.6,1,4.6,1,4.6,1,4.6,1h0l1.3.3c3.3.7,6.4,1.3,9.3,1.9,7,1.4,12.5,2.2,15.1,2.6,12.1,1.8,24.5,3.1,37.1,4,13,1.1,26.2,1.8,39.4,2s26.4-.2,39.4-1c11-.6,21.9-1.6,32.5-3,3.7-.5,6.5-1,8.9-1.4,7.1-1.3,10.5-2.5,23.6-4.6a276.38,276.38,0,0,1,34.8-4,202.18,202.18,0,0,1,34.8,1c8.7,1.1,11.9,2.2,25.5,4,7.7,1,14.2,1.7,18.6,2v82H0V41a155,155,0,0,0,37.3,1,131.24,131.24,0,0,0,27.8-6c4.6-1.4,7-2.3,22.6-8.8L95.4,24c14.8-6.1,16.7-6.9,20.9-8a109.91,109.91,0,0,1,30.2-4c12.6.3,22.4,3.3,41.9,10l3,1c2.3.8,4,1.5,5.7,2.1a131.07,131.07,0,0,0,14.6,4.8,225.81,225.81,0,0,0,23.2,5,474.35,474.35,0,0,0,58.2,6c13.9.8,27.8,1.1,41.8,1.1,3.1,0,5.5-.1,7-.1,16.8-.3,31.1-.5,48.9-3,13.7-1.9,13.5-2.7,27.8-5A378.59,378.59,0,0,1,462.4,29a263.42,263.42,0,0,1,37.7.9c5.1.5,10.2,1.3,15.2,2.3a170,170,0,0,0,17.4,2.7,257.4,257.4,0,0,0,51.2,0c8.5-.7,16.7-1.8,24.7-3.2a203.43,203.43,0,0,0,21.9-4.8c14.2-4,16-6.3,30.3-9a154.24,154.24,0,0,1,32.5-3c13.6.3,23.3,2.4,34.9,5,15.2,3.4,16.9,5.2,27.8,7.9,1.4.3,3,.7,4.6,1.1a221.78,221.78,0,0,0,37.2,5c22.2,1,40.2-1.9,56.2-4.5,15.2-2.5,18-4,32.3-5.4,5.8-.6,11.6-.9,17.5-1.1,5.3-.2,10.7-.1,16,.2a158.09,158.09,0,0,1,32,5.1Z" fill="#fff"/></g></g></g></g></g></g></svg>