<svg xmlns="http://www.w3.org/2000/svg" viewBox="0 0 775.53 32.85"><g id="Layer_2" data-name="Layer 2"><g id="Layer_1-2" data-name="Layer 1"><g id="Layer_2-2" data-name="Layer 2"><g id="Layer_1-2-2" data-name="Layer 1-2"><path d="M715.82,23.6c-3.67.85-6,1.37-7.57,1.69-4,.78-8.74,1.71-15,2.38a123.68,123.68,0,0,1-16,.8,123.2,123.2,0,0,1-21-2.39c-5.22-.93-8.9-1.84-10-2.12-1.89-.47-3.69-1-6.61-1.86l.11-.38a84.54,84.54,0,0,1,15.46-6.4c6.2-1.9,12.87-3.95,21.9-4,9.58-.05,16.64,2.29,21.89,4a66.6,66.6,0,0,1,16.75,8Z" fill="#9dcae9"/><path d="M480.89,8.38A91.68,91.68,0,0,1,504.72,4.6,95.88,95.88,0,0,1,527.6,6.83a83.66,83.66,0,0,1,20.62,7.55,66.76,66.76,0,0,1,6.43,3.9,31,31,0,0,1-3.4,1.47c-5.94,2.16-11.23,2.27-17,2.39a52.51,52.51,0,0,1-12-.8,50.31,50.31,0,0,1-10-3.18c-6-2.47-6.14-3.46-11-5.56a40.68,40.68,0,0,0-16-4H483.9a21.1,21.1,0,0,0-3,.17Z" fill="#9dcae9"/><path d="M336.25,22.93c-.77-.17-1.27-.3-2.83-.75l.14-.49a91,91,0,0,1,14.7-5.82,67,67,0,0,1,17.52-3.22,65.28,65.28,0,0,1,17.37,1.78,76.69,76.69,0,0,1,9.22,2.68,53.84,53.84,0,0,0-7.12.26,62.1,62.1,0,0,0-9,1.59c-2,.48-2.73.77-8,2.38-4.9,1.5-7.35,2.26-8,2.39a50.26,50.26,0,0,1-13,.79A62.42,62.42,0,0,1,336.25,22.93Z" fill="#9dcae9"/><path d="M202.25,20.6a42.15,42.15,0,0,0-5.49,0v-.17a61.94,61.94,0,0,1,13-8c5.22-2.38,10.84-4.94,18.44-5,8.07-.06,14,2.86,18.44,5a51.87,51.87,0,0,1,14.1,10l0,.14a76.35,76.35,0,0,1-7.55,2,58.06,58.06,0,0,1-10,1.59,62.66,62.66,0,0,1-13-.79c-.72-.1-3.49-.6-9-1.59-6-1.09-7.41-1.32-9-1.59C206.42,21.14,203.51,20.6,202.25,20.6Z" fill="#9dcae9"/><path d="M80.75,17a66.15,66.15,0,0,1,20-2.5,69.54,69.54,0,0,1,18.93,3.33,64.48,64.48,0,0,1,16.83,8.33,53.7,53.7,0,0,1,5.16,4.07c-1.94,0-3.73-.11-5.4-.17-2.34-.1-6.63-.3-12-.8-3-.28-7.37-.69-13-1.59a105.72,105.72,0,0,1-12-2.38,60.88,60.88,0,0,1-13-4.77c-2.68-1.4-3.12-2-5.57-3.4h0Z" fill="#9dcae9"/><path d="M24.53,17.79a127,127,0,0,1,16.22,0l.16.24-2.66,1.72c-5.44,3.59-5.39,4-8,5.57a35.34,35.34,0,0,1-11,4.77,36,36,0,0,1-11,.79,34.73,34.73,0,0,1-8-1.59V21.54h.5A129.69,129.69,0,0,1,24.53,17.79Z" fill="#9dcae9"/><path d="M775.25,32.85H141.75v-2.5l-.1-.09c3.35.07,7.16.06,11.6-.17,6.52-.36,9.78-.53,14-1.59,1.34-.34,1.63-.44,10-3.18,10.28-3.37,11.24-3.65,13-4a50.68,50.68,0,0,1,6.51-.82,42.15,42.15,0,0,1,5.49,0c1.26.09,4.17.59,10,1.59,1.59.27,3,.5,9,1.59,5.51,1,8.28,1.49,9,1.59a62.66,62.66,0,0,0,13,.79,58.06,58.06,0,0,0,10-1.59c3-.66,5.48-1.37,7.55-2,1.31-.41,2.46-.8,3.45-1.15a99.29,99.29,0,0,0,10-4c4.7-2.07,4.51-2.28,7-3.18a37.31,37.31,0,0,1,11-2.39,41.23,41.23,0,0,1,13,1.59c4,1,3.8,1.4,12,4,.9.28.64.19,8,2.38l8.17,2.43c1.56.45,2.06.58,2.83.75a62.42,62.42,0,0,0,11,1.59,50.26,50.26,0,0,0,13-.79c.65-.13,3.1-.89,8-2.39,5.27-1.61,6-1.9,8-2.38a62.1,62.1,0,0,1,9-1.59,53.84,53.84,0,0,1,7.12-.26,49.64,49.64,0,0,1,8.88,1c6.46,1.39,6.39,2.83,13,4a83.18,83.18,0,0,0,11,.79c6.55.24,9.83.36,13,0a59.23,59.23,0,0,0,15-4c3.32-1.25,6.41-2.67,11-4.77,5.07-2.33,4.94-2.45,7-3.18a40.23,40.23,0,0,1,9.68-2.23c1.23-.13,2.23-.16,3-.17h1.35a40.68,40.68,0,0,1,16,4c4.86,2.1,5,3.09,11,5.56a50.31,50.31,0,0,0,10,3.18,52.51,52.51,0,0,0,12,.8c5.77-.12,11.06-.23,17-2.39a31,31,0,0,0,3.4-1.47,52.58,52.58,0,0,0,6.6-4.09c6.16-4.23,5.94-5.7,11-8.75a31.6,31.6,0,0,1,12-4.77,27.41,27.41,0,0,1,4.25-.32A33.06,33.06,0,0,1,601.28,3a59,59,0,0,1,7,4c2.06,1.26,3.63,2.31,4.25,2.73,2,1.36,2.21,1.58,3.52,2.46a56.28,56.28,0,0,0,7.23,4c1.14.55,3.25,1.53,6,2.57,1,.4,2.64,1,8,2.58l2.39.72c2.92.87,4.72,1.39,6.61,1.86,1.1.28,4.78,1.19,10,2.12a123.2,123.2,0,0,0,21,2.39,123.68,123.68,0,0,0,16-.8c6.26-.67,11-1.6,15-2.38,1.61-.32,3.9-.84,7.57-1.69l6.43-1.49c11-2.58,12.15-2.9,15-3.18a52.54,52.54,0,0,1,13,0c5.28.71,6.76,1.84,13,3.18a79,79,0,0,0,12,1.59Z" fill="#fff"/><path d="M141.75,32.85H.25V29.29a34.73,34.73,0,0,0,8,1.59,36,36,0,0,0,11-.79,35.34,35.34,0,0,0,11-4.77c2.61-1.6,2.56-2,8-5.57L40.91,18c.68-.43,1.47-.93,2.34-1.46a54.27,54.27,0,0,1,7-4,27.5,27.5,0,0,1,9-1.59,32.72,32.72,0,0,1,10,.79c3,.74,5,1.83,9,4,1,.54,1.78,1,2.43,1.36h0c2.45,1.44,2.89,2,5.57,3.4a60.88,60.88,0,0,0,13,4.77,105.72,105.72,0,0,0,12,2.38c5.63.9,10,1.31,13,1.59,5.37.5,9.66.7,12,.8,1.67.06,3.46.13,5.4.17l.1.09Z" fill="#fff"/><path d="M.75,21.54a129.69,129.69,0,0,1,23.78-3.75,127,127,0,0,1,16.22,0" fill="none" stroke="#9dcae9" stroke-linecap="round" stroke-linejoin="round" stroke-width="0.5"/><path d="M80.75,17a66.15,66.15,0,0,1,20-2.5,69.54,69.54,0,0,1,18.93,3.33,64.48,64.48,0,0,1,16.83,8.33,53.7,53.7,0,0,1,5.16,4.07l.1.09" fill="none" stroke="#9dcae9" stroke-linecap="round" stroke-linejoin="round" stroke-width="0.5"/><path d="M196.75,20.35a61.94,61.94,0,0,1,13-8c5.22-2.38,10.84-4.94,18.44-5,8.07-.06,14,2.86,18.44,5a51.87,51.87,0,0,1,14.1,10" fill="none" stroke="#9dcae9" stroke-linecap="round" stroke-linejoin="round" stroke-width="0.5"/><path d="M333.56,21.69a91,91,0,0,1,14.7-5.82,67,67,0,0,1,17.52-3.22,65.28,65.28,0,0,1,17.37,1.78,76.69,76.69,0,0,1,9.22,2.68l.38.13" fill="none" stroke="#9dcae9" stroke-linecap="round" stroke-linejoin="round" stroke-width="0.5"/><path d="M480.89,8.38A91.68,91.68,0,0,1,504.72,4.6,95.88,95.88,0,0,1,527.6,6.83a83.66,83.66,0,0,1,20.62,7.55,66.76,66.76,0,0,1,6.43,3.9l.1.07" fill="none" stroke="#9dcae9" stroke-linecap="round" stroke-linejoin="round" stroke-width="0.5"/><path d="M639.75,21.75a84.54,84.54,0,0,1,15.46-6.4c6.2-1.9,12.87-3.95,21.9-4,9.58-.05,16.64,2.29,21.89,4a66.6,66.6,0,0,1,16.75,8" fill="none" stroke="#9dcae9" stroke-linecap="round" stroke-linejoin="round" stroke-width="0.5"/><path d="M.25,29.29a34.73,34.73,0,0,0,8,1.59,36,36,0,0,0,11-.79,35.34,35.34,0,0,0,11-4.77c2.61-1.6,2.56-2,8-5.57L40.91,18c.68-.43,1.47-.93,2.34-1.46a54.27,54.27,0,0,1,7-4,27.5,27.5,0,0,1,9-1.59,32.72,32.72,0,0,1,10,.79c3,.74,5,1.83,9,4,1,.54,1.78,1,2.43,1.36h0c2.45,1.44,2.89,2,5.57,3.4a60.88,60.88,0,0,0,13,4.77,105.72,105.72,0,0,0,12,2.38c5.63.9,10,1.31,13,1.59,5.37.5,9.66.7,12,.8,1.67.06,3.46.13,5.4.17,3.35.07,7.16.06,11.6-.17,6.52-.36,9.78-.53,14-1.59,1.34-.34,1.63-.44,10-3.18,10.28-3.37,11.24-3.65,13-4a50.68,50.68,0,0,1,6.51-.82,42.15,42.15,0,0,1,5.49,0c1.26.09,4.17.59,10,1.59,1.59.27,3,.5,9,1.59,5.51,1,8.28,1.49,9,1.59a62.66,62.66,0,0,0,13,.79,58.06,58.06,0,0,0,10-1.59c3-.66,5.48-1.37,7.55-2,1.31-.41,2.46-.8,3.45-1.15a99.29,99.29,0,0,0,10-4c4.7-2.07,4.51-2.28,7-3.18a37.31,37.31,0,0,1,11-2.39,41.23,41.23,0,0,1,13,1.59c4,1,3.8,1.4,12,4,.9.28.64.19,8,2.38l8.17,2.43c1.56.45,2.06.58,2.83.75a62.42,62.42,0,0,0,11,1.59,50.26,50.26,0,0,0,13-.79c.65-.13,3.1-.89,8-2.39,5.27-1.61,6-1.9,8-2.38a62.1,62.1,0,0,1,9-1.59,53.84,53.84,0,0,1,7.12-.26,49.64,49.64,0,0,1,8.88,1c6.46,1.39,6.39,2.83,13,4a83.18,83.18,0,0,0,11,.79c6.55.24,9.83.36,13,0a59.23,59.23,0,0,0,15-4c3.32-1.25,6.41-2.67,11-4.77,5.07-2.33,4.94-2.45,7-3.18a40.23,40.23,0,0,1,9.68-2.23c1.23-.13,2.23-.16,3-.17h1.35a40.68,40.68,0,0,1,16,4c4.86,2.1,5,3.09,11,5.56a50.31,50.31,0,0,0,10,3.18,52.51,52.51,0,0,0,12,.8c5.77-.12,11.06-.23,17-2.39a31,31,0,0,0,3.4-1.47,52.58,52.58,0,0,0,6.6-4.09c6.16-4.23,5.94-5.7,11-8.75a31.6,31.6,0,0,1,12-4.77,27.41,27.41,0,0,1,4.25-.32A33.06,33.06,0,0,1,601.28,3a59,59,0,0,1,7,4c2.06,1.26,3.63,2.31,4.25,2.73,2,1.36,2.21,1.58,3.52,2.46a56.28,56.28,0,0,0,7.23,4c1.14.55,3.25,1.53,6,2.57,1,.4,2.64,1,8,2.58l2.39.72c2.92.87,4.72,1.39,6.61,1.86,1.1.28,4.78,1.19,10,2.12a123.2,123.2,0,0,0,21,2.39,123.68,123.68,0,0,0,16-.8c6.26-.67,11-1.6,15-2.38,1.61-.32,3.9-.84,7.57-1.69L722.28,22c11-2.58,12.15-2.9,15-3.18a52.54,52.54,0,0,1,13,0c5.28.71,6.76,1.84,13,3.18a79,79,0,0,0,12,1.59" fill="none" stroke="#fff" stroke-linecap="round" stroke-linejoin="round" stroke-width="0.5"/></g></g></g></g></svg>