<svg xmlns="http://www.w3.org/2000/svg" viewBox="0 0 776.03 42.98"><g id="Layer_2" data-name="Layer 2"><g id="Layer_1-2" data-name="Layer 1"><g id="Layer_2-2" data-name="Layer 2"><g id="Layer_1-2-2" data-name="Layer 1-2"><path d="M199.54,29.12a47.27,47.27,0,0,1,16.25.89,29.47,29.47,0,0,1,6.55,2.31,34.41,34.41,0,0,0,7.5,2.67c9.52,2.39,17.67.87,22.08,0a59.25,59.25,0,0,0,10.65-3.16A54.69,54.69,0,0,0,272,27c6.13-4,6.89-6.28,13-9a30.56,30.56,0,0,1,14-3c5.87.27,10,2.42,15.06,5,6.57,3.36,7.29,5.18,12,7.89.6.34,1.27.7,2,1.07a45.19,45.19,0,0,0,16,5c9.55,1,17.34-1.9,24.22-4.52,6.57-2.5,7.76-4,13.92-5.45a46,46,0,0,1,7.17-1.19,32.44,32.44,0,0,1,6.89.2,34.06,34.06,0,0,1,13.77,5.12v.07a35.12,35.12,0,0,0,9.32,3.41,40,40,0,0,0,11.5.5,62.84,62.84,0,0,0,14.5-2.51,63.79,63.79,0,0,0,12.5-5.52c6.74-3.85,6.48-5.26,12-8a31.93,31.93,0,0,1,13.07-4h.93c6-.09,10.53,2,15,4a84.88,84.88,0,0,1,12,7c3.18,2.2,3.73,2.87,6,4a31.83,31.83,0,0,0,11,3,48.13,48.13,0,0,0,13,0,36.1,36.1,0,0,0,5-1,29.81,29.81,0,0,0,5-2A30.26,30.26,0,0,0,555.77,24c.38-.29.77-.6,1.17-.94.84-.72.78-.74,4-4l5-5c2.77-2.78,3.41-3.52,5-5a41,41,0,0,1,6-5,27.4,27.4,0,0,1,6-3,21.47,21.47,0,0,1,4-1l.6-.08h4.81l.59.08a18.93,18.93,0,0,1,6,2,30.62,30.62,0,0,1,3,2c1.32.94,2.34,1.76,2.94,2.25,1,.84,1.77,1.51,2.06,1.77a87.81,87.81,0,0,0,10,8,52.41,52.41,0,0,0,5,3c1.23.67,1.77.89,6,3l2,1,2,1,2,1,2,1,2,1v0l.55.28c1.41.71,2.74,1.35,4,1.91,3,1.37,5.39,2.23,6.52,2.63A94.74,94.74,0,0,0,665,36a105.3,105.3,0,0,0,17,2,101.81,101.81,0,0,0,17-1,75.79,75.79,0,0,0,14-3c1.61-.52,2.81-1,3.84-1.43,3.07-1.32,4.53-2.47,10.18-4.57,4.75-1.76,9.17-3.38,15-4a37.71,37.71,0,0,1,15,1c3.74,1.1,5.14,2.25,11,4a77.63,77.63,0,0,0,8,2V42.94H143.28v-.88h1.22c1.34,0,2.37,0,3-.07,7.24-.29,13.42-.53,21.07-3,5.91-1.9,5.81-2.68,12-5A77.87,77.87,0,0,1,199.54,29.12Z" fill="#fff"/><path d="M483.06,11.88a68,68,0,0,1,23-5.31,71.24,71.24,0,0,1,42.89,12,66.53,66.53,0,0,1,6.59,5l.33.44A30.26,30.26,0,0,1,551,27.08a29.81,29.81,0,0,1-5,2,36.1,36.1,0,0,1-5,1,48.13,48.13,0,0,1-13,0,31.83,31.83,0,0,1-11-3c-2.27-1.14-2.82-1.82-6-4a84.88,84.88,0,0,0-12-7c-4.47-2-9-4.11-15-4h-.93Z" fill="#9dcae9"/><path d="M716.5,31.64l.33,1.1c-1,.44-2.23.9-3.84,1.43a75.79,75.79,0,0,1-14,3,101.81,101.81,0,0,1-17,1,105.3,105.3,0,0,1-17-2,94.74,94.74,0,0,1-16-4.06c-1.13-.4-3.48-1.26-6.52-2.63v0a71.29,71.29,0,0,1,15-9.37c6-2.78,12.54-5.78,21.32-5.85,9.33-.07,16.21,3.34,21.32,5.85A60,60,0,0,1,716.5,31.64Z" fill="#9dcae9"/><path d="M389.53,22.42v.42A46,46,0,0,0,382.36,24c-6.16,1.42-7.35,3-13.92,5.45C361.56,32.1,353.77,35,344.22,34a45.19,45.19,0,0,1-16-5c-.75-.37-1.42-.73-2-1.07l.16-.28A94.44,94.44,0,0,1,342,21a67.69,67.69,0,0,1,18.72-3.73,64.75,64.75,0,0,1,18.54,2A79.14,79.14,0,0,1,389.53,22.42Z" fill="#9dcae9"/><path d="M262.5,31.64l.07.19A59.25,59.25,0,0,1,251.92,35c-4.41.87-12.56,2.39-22.08,0a34.41,34.41,0,0,1-7.5-2.67A29.47,29.47,0,0,0,215.75,30a47.27,47.27,0,0,0-16.25-.89,60.28,60.28,0,0,1,12.77-9.86c5.14-3,10.68-6.12,18.16-6.19,7.94-.07,13.79,3.54,18.15,6.19A53.17,53.17,0,0,1,262.5,31.64Z" fill="#9dcae9"/><path d="M144.5,41.68v.37h-1.22A134.06,134.06,0,0,1,126.46,41a96.83,96.83,0,0,1-25.09-6,60.67,60.67,0,0,1-10-5,42.13,42.13,0,0,1-6.31-4.85c-.71-.63-1.49-1.3-2.44-2.09a50.37,50.37,0,0,1,20.23-3.44,53.65,53.65,0,0,1,19.24,4.64,60.47,60.47,0,0,1,17.11,11.6A63.6,63.6,0,0,1,144.5,41.68Z" fill="#9dcae9"/><path d="M82.58,23.08c1,.78,1.73,1.46,2.44,2.09A42.13,42.13,0,0,0,91.33,30a60.67,60.67,0,0,0,10,5,96.83,96.83,0,0,0,25.09,6,134.06,134.06,0,0,0,16.82,1.08V43H0V41a29.16,29.16,0,0,0,16.06,1c5.08-1.19,8.55-3.53,12-6,2-1.44,3-2.33,9.73-8.77L41.11,24c6.36-6.11,7.18-6.88,9-8,2.52-1.5,7.23-4.29,13-4,5.45.28,9.66,3.3,18.07,10Z" fill="#fff"/><path d="M37.5,26.88l.33.34c-6.71,6.44-7.69,7.34-9.73,8.77-3.49,2.45-7,4.79-12,6A29.16,29.16,0,0,1,0,41V30.64h.5a111.41,111.41,0,0,1,22-3.75A108.23,108.23,0,0,1,37.5,26.88Z" fill="#9dcae9"/><path d="M85,25.17A42.13,42.13,0,0,0,91.33,30a60.67,60.67,0,0,0,10,5,96.83,96.83,0,0,0,25.09,6,134.06,134.06,0,0,0,16.82,1.08h1.22c1.34,0,2.37,0,3-.07,7.24-.29,13.42-.53,21.07-3,5.91-1.9,5.81-2.68,12-5a77.87,77.87,0,0,1,18.88-4.88,47.27,47.27,0,0,1,16.25.89,29.47,29.47,0,0,1,6.55,2.31" fill="none" stroke="#fff" stroke-linecap="round" stroke-linejoin="round" stroke-width="0.5"/><path d="M.5,30.64a111.41,111.41,0,0,1,22-3.75,108.23,108.23,0,0,1,15,0" fill="none" stroke="#9dcae9" stroke-linecap="round" stroke-linejoin="round" stroke-width="0.5"/></g></g></g></g></svg>